# xmcd
#
# Track frame offsets:
#	150
#	15910
#	31996
#	48848
#	68040
#	84222
#	102149
#	120181
#	134228
#	147525
#
# Disc length: 2211 seconds
#
# Revision: 0
# Processed by: cddbd v1.5.2PL0 Copyright (c) Steve Scherf et al.
# Submitted via: dBpowerAMP V4.0
#
DISCID=7908a10a
DTITLE=Kyle Bennett Band - Kyle Bennett Band
DYEAR=2005
DGENRE=Country
TTITLE0=Later On
TTITLE1=Adios
TTITLE2=Donnelly Drive
TTITLE3=What's it Like
TTITLE4=Money Can't Buy Love
TTITLE5=Grandaddy's Song
TTITLE6=Come on Radio
TTITLE7=North on 35
TTITLE8=I'm Gone
TTITLE9=Into Her Arms
EXTD=Texas Country - Southern Rock
EXTT0=
EXTT1=
EXTT2=
EXTT3=
EXTT4=
EXTT5=
EXTT6=
EXTT7=
EXTT8=
EXTT9=
PLAYORDER=
